<!DOCTYPE svg PUBLIC "-//W3C//DTD SVG 1.1//EN" "http://www.w3.org/Graphics/SVG/1.1/DTD/svg11.dtd">
<!-- Uploaded to: SVG Repo, www.svgrepo.com, Transformed by: SVG Repo Mixer Tools -->
<svg fill="#000000" width="800px" height="800px" viewBox="-25.6 -25.6 307.20 307.20" id="Flat" xmlns="http://www.w3.org/2000/svg" stroke="#000000" transform="rotate(0)">
<g id="SVGRepo_bgCarrier" stroke-width="0">
<path transform="translate(-25.6, -25.6), scale(9.6)" d="M16,29.611357335533413C20.060596247294775,29.63706205515132,23.692146235837196,27.32796692755847,26.20260735710921,24.136307864510428C28.69019064972668,20.973734385998796,29.630684786305576,17.003060319455848,29.048944207886425,13.02166363686878C28.393379958706845,8.53502229924889,27.08919873608871,3.411816168275556,22.915530119376207,1.6397537384748695C18.844084625493334,-0.08890664577339136,14.829090909346775,3.3740851512322547,10.84322858280595,5.2918538149639005C6.854368482419458,7.211064835774438,1.5651950261108896,8.167128811996825,0.4472739240503927,12.450191764186975C-0.6868024996672166,16.795150193207064,2.942574208322309,20.68077623088633,5.958092039408346,24.00815437217821C8.666245522060894,26.99638100726869,11.967266186320533,29.58582899297945,16,29.611357335533413" fill="#ffffff" strokewidth="0"/>
</g>
<g id="SVGRepo_tracerCarrier" stroke-linecap="round" stroke-linejoin="round" stroke="#CCCCCC" stroke-width="2.048"/>
<g id="SVGRepo_iconCarrier"> <path d="M247.77734,109.07471,223.18457,61.97852a12.05548,12.05548,0,0,0-16.00391-5.1792l-24.125,12.062H164.86377L131.08008,53.5752a12.0181,12.0181,0,0,0-8.30469-.58741L72.59766,67.61615,48.81934,55.72754a12.05752,12.05752,0,0,0-16.00391,5.17871L8.22266,108.00342a12.00088,12.00088,0,0,0,5.2705,16.28711L37.853,136.47046l54.34424,42.49438a11.91724,11.91724,0,0,0,4.48144,2.18946l57.957,14.48925a11.91,11.91,0,0,0,2.88281.35352,12.06751,12.06751,0,0,0,8.5127-3.50977l36.79688-36.79736c.07421-.07373.14453-.15039.21289-.22949l15.47363-18.10211,23.99219-11.996a12.00124,12.00124,0,0,0,5.2705-16.28759Zm-48.415,38.37689-41.00976-29.82514a4.00119,4.00119,0,0,0-4.75293.03467l-12.79981,9.6001a28.14358,28.14358,0,0,1-33.5996,0l-5.4209-4.06543a3.99978,3.99978,0,0,1-.42871-6.02783L140.48535,78.0332a4.02842,4.02842,0,0,1,2.82813-1.17187h20.67529l.00928.001.01367-.001h17.56445l29.627,56.73761ZM15.05469,114.78906a3.96941,3.96941,0,0,1,.25976-3.083L39.90723,64.60889a4.01768,4.01768,0,0,1,3.56152-2.144,3.95148,3.95148,0,0,1,1.77246.418l21.3291,10.66407L38.27344,127.73633,17.07129,117.13525A3.96911,3.96911,0,0,1,15.05469,114.78906Zm145.32031,72.041a4.01527,4.01527,0,0,1-3.7998,1.05176l-57.957-14.48926a3.96913,3.96913,0,0,1-1.49316-.72949l-52.03809-40.691L74.65332,75.35l50.36035-14.68152a4.00066,4.00066,0,0,1,2.76856.19531l17.67431,7.99756h-2.14306A11.91947,11.91947,0,0,0,134.8291,72.376L95.69434,111.51074a11.99951,11.99951,0,0,0,1.28418,18.08545l5.42089,4.06543a36.18887,36.18887,0,0,0,43.20118,0l10.43554-7.82764,37.82569,27.509Zm80.57031-70.96924a3.96914,3.96914,0,0,1-2.0166,2.34619l-21.20215,10.60108L189.42969,74.61865l21.3291-10.66406a4.01661,4.01661,0,0,1,5.334,1.72656l24.59278,47.09619A3.97079,3.97079,0,0,1,240.94531,115.86084ZM115.88086,213.83105a3.99648,3.99648,0,0,1-4.85059,2.91114L80.89063,209.208a12.065,12.065,0,0,1-4.9629-2.58594L53.376,187.01855a3.99964,3.99964,0,1,1,5.248-6.0371L81.17676,200.585a4.03759,4.03759,0,0,0,1.65625.86231l30.13672,7.5332A4.00094,4.00094,0,0,1,115.88086,213.83105Z"/> </g>
</svg>